<svg version="1.1" id="Layer_1" xmlns="http://www.w3.org/2000/svg" xmlns:xlink="http://www.w3.org/1999/xlink" x="0px" y="0px"
	 width="100%" viewBox="0 0 1080 1080" enable-background="new 0 0 1080 1080" xml:space="preserve">
<path fill="#000000" opacity="1.000000" stroke="none" 
	d="
M748.000000,1081.000000 
	C498.695374,1081.000000 249.890762,1081.000000 1.043071,1081.000000 
	C1.043071,721.070251 1.043071,361.140503 1.043071,1.105384 
	C360.888153,1.105384 720.776367,1.105384 1080.832275,1.105384 
	C1080.832275,360.999939 1080.832275,720.999939 1080.832275,1081.000000 
	C970.140076,1081.000000 859.320007,1081.000000 748.000000,1081.000000 
M98.156219,423.514923 
	C98.104523,424.344574 98.007576,425.174225 98.007538,426.003876 
	C98.000549,576.952820 97.998215,727.901794 98.034630,878.850769 
	C98.034958,880.234863 98.556465,881.618774 99.373680,883.699341 
	C116.026489,883.797974 132.679840,883.976379 149.331207,883.864563 
	C150.892715,883.854126 152.813919,882.319458 153.930176,880.966248 
	C158.006683,876.024658 161.374390,870.436584 165.799713,865.855774 
	C181.503418,849.600159 200.452774,838.342529 222.709320,834.563782 
	C232.812088,832.848511 236.166504,828.937988 238.780701,819.305603 
	C244.833054,797.004761 257.787384,778.576111 276.211304,764.252258 
	C302.794739,743.584778 332.597046,736.562500 365.544312,743.368958 
	C368.767365,744.034851 369.498718,743.504395 370.069946,740.443359 
	C374.737640,715.430969 386.086578,694.163086 405.802612,677.692139 
	C421.946533,664.205261 440.783661,657.523315 461.574982,657.168762 
	C475.131927,656.937500 488.105347,660.430054 500.383331,666.649963 
	C511.915833,672.492188 522.184143,679.747742 530.311829,689.831726 
	C533.500610,693.788086 535.191406,693.866089 538.076538,689.656067 
	C545.881592,678.266663 554.950500,667.966248 565.955811,659.635193 
	C591.615723,640.210876 620.414917,631.939880 652.586792,635.943542 
	C671.351501,638.278809 688.164856,645.155884 703.706909,655.874390 
	C722.039734,668.517517 736.042175,684.890686 745.685730,704.686157 
	C750.592957,714.759277 753.207520,725.934692 757.170044,736.494934 
	C757.959290,738.598450 759.920410,741.428772 761.756409,741.785278 
	C774.419983,744.243713 786.300415,748.677124 797.374023,755.143311 
	C816.283020,766.184875 831.048950,781.383118 840.508728,801.171082 
	C845.196899,810.977722 848.501648,821.445679 852.599365,832.046753 
	C853.398010,832.236450 854.976318,832.747559 856.594421,832.973694 
	C868.680786,834.662903 880.259155,838.162170 891.115234,843.630371 
	C908.132690,852.202209 921.789856,864.804016 932.580872,880.413879 
	C934.483948,883.166748 936.358521,884.059021 939.427979,884.040466 
	C954.093872,883.952148 968.760559,884.009888 983.427002,883.986328 
	C984.857910,883.984009 986.288513,883.780518 988.001038,883.648743 
	C988.001038,881.255432 988.001038,879.274536 988.001038,877.293640 
	C988.000977,726.296204 988.000916,575.298706 988.000732,424.301239 
	C988.000732,423.301270 988.057068,422.297333 987.989258,421.301910 
	C987.255066,410.524689 976.940857,400.021210 966.377197,400.017578 
	C874.545410,399.986053 782.713623,399.997589 690.881836,400.011322 
	C689.342712,400.011536 687.803589,400.199890 684.821350,400.394775 
	C686.856323,401.922119 687.649475,402.617340 688.533691,403.165802 
	C698.260071,409.198608 708.018616,415.179871 717.729248,421.237854 
	C722.079407,423.951691 724.443359,427.764435 724.042297,433.103210 
	C723.634583,438.530579 723.390320,443.970398 723.091919,449.405762 
	C722.403503,461.943268 721.675232,474.478943 721.056335,487.019928 
	C720.322449,501.893158 719.675232,516.770752 719.012268,531.647400 
	C718.658813,539.580078 718.406128,547.517517 718.003601,555.447571 
	C717.747192,560.499023 713.469727,565.398438 708.035461,567.085449 
	C702.968567,568.658264 698.750793,566.719421 696.280457,562.632385 
	C692.321411,556.082214 689.083923,549.086487 685.693481,542.204163 
	C679.022400,528.662415 672.670715,514.958496 665.761475,501.540680 
	C661.889465,494.021179 660.091431,484.426941 648.804871,483.337555 
	C644.491272,482.921204 640.258057,481.085846 636.130310,479.522003 
	C633.006409,478.338440 631.526550,479.531372 630.323120,482.185394 
	C627.463623,488.491669 624.653992,494.827972 621.541626,501.009857 
	C619.083313,505.892578 614.982178,508.505035 609.398254,509.142792 
	C607.799255,509.325439 605.634399,510.912842 605.029602,512.388977 
	C601.621826,520.706299 597.453369,528.335449 589.903687,533.719727 
	C588.885681,534.445679 588.243103,536.184387 588.072449,537.535706 
	C586.562988,549.488403 583.297363,560.854675 577.807617,571.634705 
	C574.391113,578.343567 571.602356,585.369080 568.395081,592.188171 
	C564.335693,600.818909 560.297668,609.466858 555.932922,617.943848 
	C553.663879,622.350647 550.146729,625.363098 544.602722,625.031433 
	C539.283081,624.713135 535.848938,622.242615 533.598816,617.344971 
	C527.556641,604.193726 520.752380,591.372559 515.178345,578.032654 
	C510.721802,567.367004 507.674286,556.116150 503.899231,545.160217 
	C502.767700,541.876343 502.207428,537.265747 499.811615,535.749023 
	C490.928650,530.125427 485.588440,522.466431 482.671753,512.589844 
	C482.226685,511.082703 479.672974,509.117279 478.178833,509.186432 
	C471.368256,509.501556 467.821777,505.389343 465.128082,500.247711 
	C462.020874,494.316742 459.325684,488.167297 456.534882,482.074493 
	C455.422516,479.645996 454.371277,478.525879 451.258423,479.729767 
	C445.174072,482.082825 438.915802,484.151062 432.557526,485.562134 
	C429.315521,486.281586 427.967133,487.812714 426.665741,490.524170 
	C419.549988,505.349884 412.264954,520.094666 404.996063,534.846558 
	C400.503815,543.963379 396.220398,553.200806 391.292908,562.078674 
	C388.501556,567.107910 383.866302,568.372314 378.459198,566.968445 
	C374.034973,565.819763 369.349091,560.530273 369.044800,555.889954 
	C368.276550,544.174316 367.654053,532.448975 367.006256,520.725708 
	C366.322174,508.345398 365.586639,495.966980 365.035736,483.580536 
	C364.277832,466.539612 363.732574,449.489197 362.958557,432.449097 
	C362.767700,428.247162 364.398438,425.033966 367.659210,422.827789 
	C373.758270,418.701324 380.061676,414.876648 386.283783,410.932251 
	C391.259857,407.777802 396.241333,404.631958 401.220428,401.482300 
	C401.029053,400.987701 400.837677,400.493134 400.646301,399.998566 
	C398.732910,399.998566 396.819489,399.998566 394.906097,399.998566 
	C304.407623,399.998596 213.908813,400.119171 123.411118,399.852936 
	C111.491081,399.817902 98.899544,409.734589 98.156219,423.514923 
M259.994141,836.520325 
	C259.659790,838.282776 259.162567,840.031921 259.018188,841.809814 
	C258.211304,851.745483 253.492920,856.474792 242.858429,857.146301 
	C235.064285,857.638489 227.268127,859.086548 219.627945,860.800110 
	C207.721069,863.470520 198.142990,870.874451 188.188416,877.408386 
	C185.692520,879.046570 183.346985,880.913818 180.932358,882.675781 
	C181.197708,882.998535 181.463074,883.321228 181.728424,883.643921 
	C423.041534,883.643921 664.354614,883.643921 905.667725,883.643921 
	C905.853149,883.283691 906.038574,882.923523 906.223999,882.563293 
	C903.671936,880.727783 901.129211,878.879211 898.566345,877.058838 
	C881.503357,864.938782 863.310059,856.219177 841.628479,856.889160 
	C834.586304,857.106750 828.880066,851.396057 828.060059,844.244629 
	C826.624634,831.725281 822.839050,819.989075 816.544739,809.119995 
	C801.633911,783.371765 780.176208,767.665710 749.688782,765.984619 
	C742.392090,765.582275 735.783081,760.538025 735.005554,755.000427 
	C732.780273,739.153442 728.566223,724.027771 720.574890,709.930908 
	C710.719238,692.545471 697.115540,679.333557 679.606323,669.856750 
	C662.408386,660.548523 644.207764,658.225952 625.056641,660.949097 
	C604.061951,663.934387 586.069702,673.012207 570.919800,687.617920 
	C560.274780,697.880554 552.610291,710.169067 547.774780,724.237427 
	C546.922119,726.718140 545.089661,729.232971 543.023010,730.859741 
	C535.078125,737.113281 527.368774,733.631226 523.231873,724.088257 
	C515.554138,706.377319 503.036285,694.030945 485.331573,686.732910 
	C470.031830,680.426270 454.734497,680.853333 439.242432,686.306274 
	C426.805206,690.683960 417.206207,698.732666 409.668060,709.077271 
	C403.926422,716.956482 398.378754,725.249817 396.937225,735.317139 
	C395.843658,742.954224 394.237091,750.624573 394.218323,758.283386 
	C394.191040,769.460327 387.114014,779.091797 373.416199,772.700134 
	C358.894012,765.923950 343.774445,764.538757 328.075592,766.950439 
	C307.543365,770.104614 291.686920,780.834473 278.728912,796.582092 
	C269.257355,808.092773 263.356171,821.250549 259.994141,836.520325 
M164.500000,909.000549 
	C125.839211,909.000488 87.178383,908.971863 48.517658,909.021484 
	C39.407795,909.033142 31.604145,912.906311 28.283415,921.163452 
	C25.384993,928.370605 25.266256,936.926697 29.030680,944.213745 
	C33.314407,952.506165 41.330593,954.997314 50.225327,954.997437 
	C379.175537,955.000549 708.125732,955.000000 1037.075928,954.999817 
	C1037.909180,954.999817 1038.747559,955.060120 1039.574829,954.988831 
	C1054.734619,953.682251 1064.348145,941.283386 1060.319336,925.896362 
	C1057.385620,914.691895 1049.165649,909.002502 1037.368042,909.002441 
	C746.745361,909.000122 456.122681,909.000610 164.500000,909.000549 
M522.537048,154.970749 
	C521.480957,156.030304 520.212585,156.948990 519.401489,158.171173 
	C511.216980,170.503281 503.048920,182.847153 494.991211,195.262344 
	C484.506805,211.416580 476.715912,228.964294 470.656860,247.097305 
	C465.448029,262.685852 461.278656,278.737671 458.169769,294.877441 
	C455.381561,309.352386 454.001282,324.190430 453.203735,338.933380 
	C452.237671,356.791016 452.719543,374.712189 456.033875,392.402557 
	C458.499237,405.561646 461.087006,418.697784 463.617462,431.829834 
	C517.129639,431.829834 569.750671,431.829834 622.696106,431.829834 
	C623.353027,429.080078 623.959839,426.410004 624.629883,423.755890 
	C630.082153,402.159912 633.240234,380.219299 633.952942,357.972870 
	C634.695496,334.798035 632.598328,311.839172 628.047546,289.081329 
	C622.776733,262.722473 614.057861,237.485779 601.949463,213.613113 
	C594.175232,198.285751 585.130493,183.478134 575.378296,169.316956 
	C567.090637,157.282501 556.996277,146.489319 547.653809,135.186157 
	C545.142578,132.147858 542.353027,131.945663 539.673340,135.008423 
	C534.055969,141.428772 528.491821,147.895660 522.537048,154.970749 
M538.500000,456.999695 
	C516.781860,456.999695 495.063751,456.999695 472.555511,456.999695 
	C476.335358,465.762604 479.638794,473.751526 483.304047,481.570831 
	C483.870087,482.778442 486.094299,483.891968 487.555542,483.896942 
	C524.868591,484.024048 562.182129,484.007446 599.495544,483.952576 
	C600.661804,483.950867 602.535522,483.609802 602.884277,482.866333 
	C606.801636,474.514923 610.484375,466.053406 614.506409,456.999695 
	C588.784912,456.999695 564.142456,456.999695 538.500000,456.999695 
M437.884644,427.732117 
	C436.492615,422.327972 435.100586,416.923828 433.673431,411.383270 
	C432.442657,411.914551 431.644073,412.157471 430.949677,412.573975 
	C417.515625,420.632812 404.045929,428.634949 390.739960,436.900604 
	C389.338165,437.771454 388.106628,440.249695 388.170776,441.929749 
	C388.572845,452.463074 389.457733,462.976715 390.000305,473.506317 
	C390.485107,482.914093 390.727539,492.334290 391.112213,501.747559 
	C391.128326,502.141418 391.502533,502.520691 392.201813,503.822540 
	C393.460876,501.983093 394.541656,500.751129 395.237640,499.330658 
	C399.554077,490.520721 403.782135,481.667542 408.043671,472.830719 
	C410.137695,468.488464 413.329163,465.474457 418.053314,464.037872 
	C426.953217,461.331451 435.805573,458.468719 445.447174,455.428314 
	C442.925293,446.356506 440.452332,437.460602 437.884644,427.732117 
M698.093262,445.970123 
	C698.942078,442.889771 700.680054,439.668701 696.819641,437.290771 
	C682.673096,428.576904 668.521545,419.871307 654.357666,411.153839 
	C653.707825,412.003693 653.262817,412.346558 653.140564,412.780365 
	C649.425598,425.961273 645.655334,439.128601 642.220642,452.382751 
	C641.948364,453.433533 643.754883,455.863892 645.073608,456.346558 
	C652.425293,459.037384 659.807922,461.829620 667.411133,463.587006 
	C673.214966,464.928467 676.596436,468.173737 678.996521,473.157593 
	C683.270508,482.032715 687.553833,490.903748 691.925415,499.730835 
	C692.584167,501.060913 693.740967,502.144287 694.667358,503.341766 
	C695.031128,503.143158 695.394897,502.944519 695.758728,502.745880 
	C696.512695,484.128479 697.266602,465.511047 698.093262,445.970123 
M553.901794,564.397644 
	C558.816406,554.847412 562.801453,544.961548 562.924194,534.053406 
	C562.995117,527.756897 564.194214,522.109802 568.246094,517.093323 
	C569.981384,514.944946 571.037231,512.247681 572.589417,509.463196 
	C553.072571,509.463196 534.608215,509.463196 516.594421,509.463196 
	C519.983521,515.748169 523.622437,521.701416 526.405212,528.030945 
	C527.592773,530.732056 526.717468,534.266846 527.252319,537.340576 
	C529.860107,552.326416 535.979187,566.036072 542.911560,579.426941 
	C543.401001,580.372375 544.111267,581.203552 545.347290,583.002380 
	C548.300720,576.470459 550.886963,570.750671 553.901794,564.397644 
z"/>
<path fill="#5801BF" opacity="1.000000" stroke="none" 
	d="
M98.834320,422.999176 
	C98.899544,409.734589 111.491081,399.817902 123.411118,399.852936 
	C213.908813,400.119171 304.407623,399.998596 394.906097,399.998566 
	C396.819489,399.998566 398.732910,399.998566 400.646301,399.998566 
	C400.837677,400.493134 401.029053,400.987701 401.220428,401.482300 
	C396.241333,404.631958 391.259857,407.777802 386.283783,410.932251 
	C380.061676,414.876648 373.758270,418.701324 367.659210,422.827789 
	C364.398438,425.033966 362.767700,428.247162 362.958557,432.449097 
	C363.732574,449.489197 364.277832,466.539612 365.035736,483.580536 
	C365.586639,495.966980 366.322174,508.345398 367.006256,520.725708 
	C367.654053,532.448975 368.276550,544.174316 369.044800,555.889954 
	C369.349091,560.530273 374.034973,565.819763 378.459198,566.968445 
	C383.866302,568.372314 388.501556,567.107910 391.292908,562.078674 
	C396.220398,553.200806 400.503815,543.963379 404.996063,534.846558 
	C412.264954,520.094666 419.549988,505.349884 426.665741,490.524170 
	C427.967133,487.812714 429.315521,486.281586 432.557526,485.562134 
	C438.915802,484.151062 445.174072,482.082825 451.258423,479.729767 
	C454.371277,478.525879 455.422516,479.645996 456.534882,482.074493 
	C459.325684,488.167297 462.020874,494.316742 465.128082,500.247711 
	C467.821777,505.389343 471.368256,509.501556 478.178833,509.186432 
	C479.672974,509.117279 482.226685,511.082703 482.671753,512.589844 
	C485.588440,522.466431 490.928650,530.125427 499.811615,535.749023 
	C502.207428,537.265747 502.767700,541.876343 503.899231,545.160217 
	C507.674286,556.116150 510.721802,567.367004 515.178345,578.032654 
	C520.752380,591.372559 527.556641,604.193726 533.598816,617.344971 
	C535.848938,622.242615 539.283081,624.713135 544.602722,625.031433 
	C550.146729,625.363098 553.663879,622.350647 555.932922,617.943848 
	C560.297668,609.466858 564.335693,600.818909 568.395081,592.188171 
	C571.602356,585.369080 574.391113,578.343567 577.807617,571.634705 
	C583.297363,560.854675 586.562988,549.488403 588.072449,537.535706 
	C588.243103,536.184387 588.885681,534.445679 589.903687,533.719727 
	C597.453369,528.335449 601.621826,520.706299 605.029602,512.388977 
	C605.634399,510.912842 607.799255,509.325439 609.398254,509.142792 
	C614.982178,508.505035 619.083313,505.892578 621.541626,501.009857 
	C624.653992,494.827972 627.463623,488.491669 630.323120,482.185394 
	C631.526550,479.531372 633.006409,478.338440 636.130310,479.522003 
	C640.258057,481.085846 644.491272,482.921204 648.804871,483.337555 
	C660.091431,484.426941 661.889465,494.021179 665.761475,501.540680 
	C672.670715,514.958496 679.022400,528.662415 685.693481,542.204163 
	C689.083923,549.086487 692.321411,556.082214 696.280457,562.632385 
	C698.750793,566.719421 702.968567,568.658264 708.035461,567.085449 
	C713.469727,565.398438 717.747192,560.499023 718.003601,555.447571 
	C718.406128,547.517517 718.658813,539.580078 719.012268,531.647400 
	C719.675232,516.770752 720.322449,501.893158 721.056335,487.019928 
	C721.675232,474.478943 722.403503,461.943268 723.091919,449.405762 
	C723.390320,443.970398 723.634583,438.530579 724.042297,433.103210 
	C724.443359,427.764435 722.079407,423.951691 717.729248,421.237854 
	C708.018616,415.179871 698.260071,409.198608 688.533691,403.165802 
	C687.649475,402.617340 686.856323,401.922119 684.821350,400.394775 
	C687.803589,400.199890 689.342712,400.011536 690.881836,400.011322 
	C782.713623,399.997589 874.545410,399.986053 966.377197,400.017578 
	C976.940857,400.021210 987.255066,410.524689 987.989258,421.301910 
	C988.057068,422.297333 988.000732,423.301270 988.000732,424.301239 
	C988.000916,575.298706 988.000977,726.296204 988.001038,877.293640 
	C988.001038,879.274536 988.001038,881.255432 988.001038,883.648743 
	C986.288513,883.780518 984.857910,883.984009 983.427002,883.986328 
	C968.760559,884.009888 954.093872,883.952148 939.427979,884.040466 
	C936.358521,884.059021 934.483948,883.166748 932.580872,880.413879 
	C921.789856,864.804016 908.132690,852.202209 891.115234,843.630371 
	C880.259155,838.162170 868.680786,834.662903 856.594421,832.973694 
	C854.976318,832.747559 853.398010,832.236450 852.599365,832.046753 
	C848.501648,821.445679 845.196899,810.977722 840.508728,801.171082 
	C831.048950,781.383118 816.283020,766.184875 797.374023,755.143311 
	C786.300415,748.677124 774.419983,744.243713 761.756409,741.785278 
	C759.920410,741.428772 757.959290,738.598450 757.170044,736.494934 
	C753.207520,725.934692 750.592957,714.759277 745.685730,704.686157 
	C736.042175,684.890686 722.039734,668.517517 703.706909,655.874390 
	C688.164856,645.155884 671.351501,638.278809 652.586792,635.943542 
	C620.414917,631.939880 591.615723,640.210876 565.955811,659.635193 
	C554.950500,667.966248 545.881592,678.266663 538.076538,689.656067 
	C535.191406,693.866089 533.500610,693.788086 530.311829,689.831726 
	C522.184143,679.747742 511.915833,672.492188 500.383331,666.649963 
	C488.105347,660.430054 475.131927,656.937500 461.574982,657.168762 
	C440.783661,657.523315 421.946533,664.205261 405.802612,677.692139 
	C386.086578,694.163086 374.737640,715.430969 370.069946,740.443359 
	C369.498718,743.504395 368.767365,744.034851 365.544312,743.368958 
	C332.597046,736.562500 302.794739,743.584778 276.211304,764.252258 
	C257.787384,778.576111 244.833054,797.004761 238.780701,819.305603 
	C236.166504,828.937988 232.812088,832.848511 222.709320,834.563782 
	C200.452774,838.342529 181.503418,849.600159 165.799713,865.855774 
	C161.374390,870.436584 158.006683,876.024658 153.930176,880.966248 
	C152.813919,882.319458 150.892715,883.854126 149.331207,883.864563 
	C132.679840,883.976379 116.026489,883.797974 99.151901,882.885010 
	C98.952858,880.738892 98.995476,879.407166 98.995506,878.075378 
	C98.998337,728.046448 98.998535,578.017578 98.991066,427.988647 
	C98.990982,426.325500 98.888824,424.662323 98.834320,422.999176 
M905.049011,579.549133 
	C914.242065,570.359497 923.487061,561.220764 932.591187,551.943909 
	C934.821655,549.671143 936.473633,549.401123 938.726135,551.851990 
	C941.880798,555.284424 945.237732,558.538330 948.623657,561.746765 
	C949.802917,562.864319 951.325195,563.619995 952.690674,564.540833 
	C953.315613,563.605835 953.631165,563.346863 953.661438,563.057861 
	C955.345581,546.989929 957.013184,530.920166 958.663147,514.848694 
	C959.049805,511.081451 956.723999,510.891846 953.885315,511.205841 
	C939.149536,512.835938 924.406738,514.402954 909.671936,516.041687 
	C908.334534,516.190491 907.036438,516.692688 904.419556,517.364685 
	C909.219299,522.256897 912.938354,526.458923 917.100891,530.162598 
	C920.540588,533.223145 920.412354,535.267822 917.116455,538.505554 
	C899.879089,555.438782 882.878479,572.612976 865.776672,589.684570 
	C864.540649,590.918457 863.154663,592.002075 860.763977,594.096863 
	C850.313232,583.172302 840.219421,572.620911 829.568115,561.486755 
	C827.757080,564.358459 826.285522,566.492432 825.013428,568.739258 
	C807.608765,599.480347 790.237732,630.240479 772.830383,660.980103 
	C771.936768,662.558167 770.980591,664.180054 769.724792,665.458618 
	C766.355042,668.889465 766.790833,672.449158 768.625122,676.419678 
	C769.472046,678.252991 770.321899,680.607239 769.880737,682.409546 
	C768.813232,686.770142 766.979675,690.942322 765.470032,695.195740 
	C763.138489,701.765015 765.455994,705.250000 772.282837,705.272949 
	C785.447998,705.317261 798.616333,705.432129 811.776428,705.168579 
	C814.453857,705.114990 818.793091,704.125732 819.373108,702.500000 
	C820.292358,699.923279 819.209656,696.224854 818.015503,693.407227 
	C816.593750,690.052429 816.898499,687.700500 820.028137,686.939392 
	C826.023193,685.481384 827.765686,681.185181 824.681335,675.875610 
	C823.815186,674.384521 823.082825,672.611206 822.975769,670.923767 
	C822.705750,666.668762 820.531677,665.153442 816.478027,665.192139 
	C805.980103,665.292297 795.480408,665.237122 784.981628,665.199036 
	C783.309753,665.192993 781.638672,664.953796 778.981201,664.744873 
	C797.516907,640.856140 815.307251,617.928101 832.533020,595.727600 
	C840.611267,603.868408 848.012573,611.327148 855.687927,619.062073 
	C851.020874,619.062073 846.075989,618.762085 841.200134,619.211060 
	C839.273071,619.388489 836.297668,620.884338 835.864075,622.378845 
	C833.980835,628.869995 830.647156,635.091736 831.788940,642.311035 
	C832.261780,645.301086 831.958252,648.050232 835.211060,649.961792 
	C837.797302,651.481750 837.914673,654.367126 835.177856,655.953064 
	C830.701294,658.547119 831.105164,662.530334 832.603699,665.939331 
	C834.315063,669.832581 834.683655,672.802490 832.232178,676.552673 
	C829.416443,680.860168 831.492249,685.790283 835.890198,686.817810 
	C840.567810,687.910828 840.768311,689.477112 838.592041,694.057617 
	C837.375793,696.617554 837.103088,700.196472 837.882629,702.888367 
	C838.260986,704.194763 842.026184,705.147339 844.274658,705.182068 
	C857.770081,705.390564 871.270386,705.313049 884.768921,705.274841 
	C891.776245,705.254944 894.216064,701.356873 891.584839,694.846191 
	C889.899780,690.676697 888.290283,686.448059 887.105530,682.120361 
	C886.682129,680.573975 887.087219,678.289551 888.015625,676.982239 
	C890.583191,673.366821 890.431702,669.970276 888.478149,666.258850 
	C886.837585,663.142029 886.759827,660.495789 890.270020,658.163269 
	C893.204468,656.213318 893.152405,650.348083 890.692749,647.856262 
	C886.693298,643.804504 885.276917,635.388123 888.548279,631.234131 
	C891.050415,628.056946 892.083984,624.518616 889.966492,621.694885 
	C888.598816,619.871155 884.847656,619.373840 882.094482,619.151917 
	C877.273193,618.763428 872.398010,619.043579 867.545471,619.043579 
	C867.382629,618.468628 867.219788,617.893677 867.056946,617.318665 
	C879.554382,604.895569 892.051819,592.472473 905.049011,579.549133 
M225.316299,727.176331 
	C238.118149,727.349976 250.926270,727.343079 263.718658,727.788757 
	C268.637115,727.960205 270.206207,726.187988 269.898712,721.466309 
	C269.576477,716.518188 269.826691,711.532776 269.826691,706.563660 
	C270.580292,706.508606 271.333862,706.453552 272.087463,706.398499 
	C273.105316,712.203979 274.169342,718.001831 275.126984,723.817261 
	C275.955353,728.847656 279.164856,731.975464 283.672424,731.970093 
	C288.214447,731.964783 292.175720,728.666992 292.041260,723.803223 
	C291.528534,705.253845 285.974182,688.686340 269.392090,678.475586 
	C254.177750,669.107117 237.996979,669.334412 223.144897,679.307312 
	C207.420273,689.866150 202.073318,706.183960 201.877365,724.383057 
	C201.828491,728.922607 205.885193,732.001648 210.262070,731.954468 
	C214.610855,731.907593 217.865265,728.906982 218.673584,724.234985 
	C219.494888,719.488037 220.273361,714.731567 221.230179,710.011658 
	C221.447128,708.941528 222.322342,708.004822 223.571884,705.825256 
	C223.977173,713.769836 224.305145,720.198914 225.316299,727.176331 
M951.933716,705.364441 
	C957.748169,704.936218 959.799866,703.237488 958.774902,698.217834 
	C957.751221,693.204651 955.367554,688.483398 954.037781,683.511780 
	C953.504456,681.518066 953.433350,678.692078 954.476074,677.127380 
	C956.924438,673.453308 956.973328,670.122864 955.061523,666.398743 
	C953.515808,663.387573 952.867676,660.724976 956.576233,658.359802 
	C959.865295,656.262146 959.874695,650.465576 957.086609,647.770447 
	C953.100525,643.917297 952.202087,635.108887 955.350281,630.746643 
	C958.421082,626.491394 958.248230,623.242004 954.658691,619.295837 
	C952.441162,616.857971 952.565491,614.947144 955.132507,612.606506 
	C956.623291,611.247192 958.170715,608.682434 957.913269,606.920166 
	C957.240906,602.318115 955.767883,597.795227 954.193298,593.391235 
	C953.829407,592.373352 951.787476,591.366577 950.508179,591.354492 
	C935.181519,591.209290 919.849915,591.112793 904.529724,591.455627 
	C902.937805,591.491272 900.400330,594.262817 900.107605,596.059204 
	C899.735291,598.343506 901.544556,600.896484 901.778564,603.393188 
	C901.977173,605.513245 902.057800,608.491272 900.824280,609.739746 
	C897.130188,613.478760 896.811218,617.597839 899.969238,621.868042 
	C901.105591,623.404602 901.605835,626.917419 900.637390,628.246277 
	C896.252319,634.263000 899.047119,640.715454 898.836365,646.938232 
	C898.805420,647.853394 900.419006,648.886719 901.368286,649.760437 
	C903.843994,652.038818 904.095154,654.216553 901.114868,656.208191 
	C897.230530,658.803955 897.408813,662.659058 899.049194,665.958130 
	C900.953186,669.787292 901.425720,672.701843 898.717285,676.435608 
	C895.993347,680.190918 897.927856,685.600464 901.698364,686.752747 
	C906.840637,688.324280 907.276062,689.464355 904.569580,694.269043 
	C900.955566,700.684875 903.641113,705.337097 911.051880,705.359497 
	C924.381714,705.399841 937.711792,705.370300 951.933716,705.364441 
M230.313889,658.007690 
	C236.797165,667.984680 247.779877,670.890686 256.992065,665.066711 
	C265.922729,659.420715 268.521942,647.586365 262.769928,638.759644 
	C257.562531,630.768677 247.115494,627.937744 238.522675,632.189087 
	C229.267380,636.768188 225.931854,646.563965 230.313889,658.007690 
M306.478363,593.987610 
	C306.168365,597.058228 304.785126,601.033997 308.991089,602.016968 
	C314.889038,603.395386 312.846405,596.811340 315.865753,593.375977 
	C314.956055,600.686462 318.732483,601.216492 323.392853,600.751221 
	C325.204987,600.570251 327.050323,600.722900 328.880524,600.721558 
	C336.075806,600.716492 336.071808,600.715515 337.214752,593.989868 
	C337.235321,593.868774 337.727142,593.827698 338.391846,593.636108 
	C338.738770,595.430237 338.712677,597.387512 339.526428,598.889893 
	C340.275116,600.272095 342.231018,602.269287 343.113556,602.026550 
	C344.610046,601.615051 346.561768,599.791626 346.791107,598.322632 
	C348.706665,586.053772 336.686707,573.955627 324.376953,575.474792 
	C315.108582,576.618591 309.636047,582.080444 306.478363,593.987610 
M153.804993,595.205811 
	C154.174530,594.631714 154.544067,594.057556 155.178574,593.071777 
	C156.374557,600.369019 156.374557,600.369568 163.718521,600.382141 
	C165.379791,600.385010 167.044418,600.314514 168.701675,600.396057 
	C173.129257,600.613770 177.753876,601.191528 177.364777,594.001770 
	C178.167831,595.540894 178.170837,596.993347 178.873581,597.908508 
	C180.114853,599.525024 181.782394,600.814209 183.271500,602.240417 
	C184.354355,600.453918 186.705994,598.277832 186.297958,596.949158 
	C184.629929,591.517822 183.031784,585.657715 179.703171,581.239868 
	C174.796051,574.727112 164.885010,573.675171 157.347900,577.389099 
	C150.430191,580.797729 144.415421,591.460144 145.805374,598.496765 
	C146.084061,599.907593 147.831985,601.862732 149.084213,602.008789 
	C150.301636,602.150757 151.979431,600.481995 153.017273,599.242004 
	C153.661423,598.472290 153.490524,597.020569 153.804993,595.205811 
M267.265350,583.749207 
	C266.725250,580.325928 266.676483,576.731445 265.553986,573.511169 
	C262.030457,563.403076 252.506989,558.069519 242.713364,560.288330 
	C233.287994,562.423828 225.769226,572.535400 226.718536,582.299744 
	C226.871613,583.874268 228.710632,585.284851 229.770325,586.771240 
	C231.247711,585.497681 233.010284,584.426697 234.107040,582.882690 
	C234.902679,581.762634 234.816650,580.016296 235.123734,578.549194 
	C235.437729,578.595093 235.751709,578.640991 236.065704,578.686890 
	C236.410889,580.580872 236.756073,582.474915 237.198044,584.899902 
	C241.451141,584.899902 245.575424,584.812561 249.694321,584.924011 
	C253.921509,585.038452 258.314545,585.613281 257.893738,578.347168 
	C262.566345,588.228027 262.913025,588.433472 267.265350,583.749207 
M165.804352,636.717834 
	C158.969711,629.926025 151.128876,628.166504 143.129395,631.629395 
	C135.675308,634.856201 130.453384,643.547913 131.124008,652.295349 
	C131.244278,653.863953 132.936951,655.311951 133.903625,656.815674 
	C135.367401,655.563171 136.994339,654.450256 138.231689,653.004028 
	C138.935028,652.181885 139.001083,650.814575 139.354141,649.692749 
	C140.153137,655.215698 143.916016,655.897217 147.823074,654.957092 
	C153.017776,653.707153 161.528656,659.947266 162.533524,648.294922 
	C163.185837,649.817261 163.554565,650.881470 163.692642,651.974731 
	C164.035156,654.687195 164.911331,657.197571 168.144119,656.764771 
	C171.652405,656.295166 172.131973,653.254211 171.330338,650.606934 
	C169.955475,646.066650 167.987915,641.705933 165.804352,636.717834 
M358.805542,652.999878 
	C358.075806,649.445007 357.844971,645.691162 356.521942,642.372803 
	C352.689606,632.760925 343.071411,628.052124 333.430023,630.608398 
	C324.362122,633.012573 316.976471,643.433594 318.189697,652.647888 
	C318.390778,654.175171 320.350555,655.470886 321.497620,656.873657 
	C322.873566,655.692444 324.587311,654.727783 325.524719,653.265442 
	C326.362732,651.958130 326.344299,650.101685 326.703735,648.487549 
	C326.941742,654.591492 330.279480,655.738037 335.213470,655.099609 
	C336.685883,654.909119 338.204590,655.101379 339.700714,655.063904 
	C342.188721,655.001526 345.113373,655.660828 347.025513,654.567200 
	C348.575958,653.680481 348.909241,650.665527 350.095306,647.852295 
	C350.538452,649.878601 350.590424,651.389221 351.207855,652.615051 
	C351.966614,654.121521 353.133514,656.433167 354.240082,656.500977 
	C355.662231,656.588074 357.199768,654.791382 358.805542,652.999878 
M173.206955,569.597351 
	C175.446976,565.626709 175.123001,561.887695 171.816498,558.724854 
	C168.998627,556.029480 165.547318,555.686462 162.130478,557.416443 
	C158.660416,559.173279 156.715973,562.416992 157.819443,566.049316 
	C158.593323,568.596802 160.716385,571.337708 163.006165,572.681335 
	C166.536392,574.752747 170.053116,573.208313 173.206955,569.597351 
M327.975586,556.611755 
	C322.044647,556.613525 318.559235,559.217163 318.071198,564.010376 
	C317.628571,568.357605 320.428833,572.275146 324.673035,573.246277 
	C328.854431,574.203064 333.171936,571.777527 334.564453,567.689453 
	C336.137543,563.071228 334.143921,559.358032 327.975586,556.611755 
M240.508270,554.988647 
	C244.074707,558.548035 248.021881,559.044006 252.134430,556.118958 
	C255.548813,553.690491 256.502441,549.055542 254.452911,545.447693 
	C252.294022,541.647461 248.891418,540.326172 244.731705,541.306030 
	C239.039200,542.646912 237.144547,548.112732 240.508270,554.988647 
M158.765579,623.150879 
	C160.400330,619.139465 159.689301,615.607727 156.288773,612.902283 
	C153.254761,610.488525 149.403305,609.922119 146.692566,612.506775 
	C144.596222,614.505676 142.741684,618.164490 143.029755,620.843384 
	C143.292694,623.288574 146.158508,626.307678 148.630203,627.463562 
	C152.439789,629.245178 156.034180,627.454895 158.765579,623.150879 
M330.292542,617.154175 
	C329.282623,621.376831 330.430206,625.284241 334.371826,626.729858 
	C337.042511,627.709473 341.338928,627.567139 343.398071,625.974304 
	C345.464966,624.375488 346.959747,620.021118 346.308258,617.491760 
	C345.658569,614.969666 342.351501,612.222778 339.639923,611.355530 
	C335.643585,610.077393 332.333984,612.447571 330.292542,617.154175 
z"/>
<path fill="#5801BF" opacity="1.000000" stroke="none" 
	d="
M260.004761,836.092773 
	C263.356171,821.250549 269.257355,808.092773 278.728912,796.582092 
	C291.686920,780.834473 307.543365,770.104614 328.075592,766.950439 
	C343.774445,764.538757 358.894012,765.923950 373.416199,772.700134 
	C387.114014,779.091797 394.191040,769.460327 394.218323,758.283386 
	C394.237091,750.624573 395.843658,742.954224 396.937225,735.317139 
	C398.378754,725.249817 403.926422,716.956482 409.668060,709.077271 
	C417.206207,698.732666 426.805206,690.683960 439.242432,686.306274 
	C454.734497,680.853333 470.031830,680.426270 485.331573,686.732910 
	C503.036285,694.030945 515.554138,706.377319 523.231873,724.088257 
	C527.368774,733.631226 535.078125,737.113281 543.023010,730.859741 
	C545.089661,729.232971 546.922119,726.718140 547.774780,724.237427 
	C552.610291,710.169067 560.274780,697.880554 570.919800,687.617920 
	C586.069702,673.012207 604.061951,663.934387 625.056641,660.949097 
	C644.207764,658.225952 662.408386,660.548523 679.606323,669.856750 
	C697.115540,679.333557 710.719238,692.545471 720.574890,709.930908 
	C728.566223,724.027771 732.780273,739.153442 735.005554,755.000427 
	C735.783081,760.538025 742.392090,765.582275 749.688782,765.984619 
	C780.176208,767.665710 801.633911,783.371765 816.544739,809.119995 
	C822.839050,819.989075 826.624634,831.725281 828.060059,844.244629 
	C828.880066,851.396057 834.586304,857.106750 841.628479,856.889160 
	C863.310059,856.219177 881.503357,864.938782 898.566345,877.058838 
	C901.129211,878.879211 903.671936,880.727783 906.223999,882.563293 
	C906.038574,882.923523 905.853149,883.283691 905.667725,883.643921 
	C664.354614,883.643921 423.041534,883.643921 181.728424,883.643921 
	C181.463074,883.321228 181.197708,882.998535 180.932358,882.675781 
	C183.346985,880.913818 185.692520,879.046570 188.188416,877.408386 
	C198.142990,870.874451 207.721069,863.470520 219.627945,860.800110 
	C227.268127,859.086548 235.064285,857.638489 242.858429,857.146301 
	C253.492920,856.474792 258.211304,851.745483 259.018188,841.809814 
	C259.162567,840.031921 259.659790,838.282776 260.004761,836.092773 
z"/>
<path fill="#5801BF" opacity="1.000000" stroke="none" 
	d="
M165.000000,909.000549 
	C456.122681,909.000610 746.745361,909.000122 1037.368042,909.002441 
	C1049.165649,909.002502 1057.385620,914.691895 1060.319336,925.896362 
	C1064.348145,941.283386 1054.734619,953.682251 1039.574829,954.988831 
	C1038.747559,955.060120 1037.909180,954.999817 1037.075928,954.999817 
	C708.125732,955.000000 379.175537,955.000549 50.225327,954.997437 
	C41.330593,954.997314 33.314407,952.506165 29.030680,944.213745 
	C25.266256,936.926697 25.384993,928.370605 28.283415,921.163452 
	C31.604145,912.906311 39.407795,909.033142 48.517658,909.021484 
	C87.178383,908.971863 125.839211,909.000488 165.000000,909.000549 
z"/>
<path fill="#5801BF" opacity="1.000000" stroke="none" 
	d="
M522.721436,154.657104 
	C528.491821,147.895660 534.055969,141.428772 539.673340,135.008423 
	C542.353027,131.945663 545.142578,132.147858 547.653809,135.186157 
	C556.996277,146.489319 567.090637,157.282501 575.378296,169.316956 
	C585.130493,183.478134 594.175232,198.285751 601.949463,213.613113 
	C614.057861,237.485779 622.776733,262.722473 628.047546,289.081329 
	C632.598328,311.839172 634.695496,334.798035 633.952942,357.972870 
	C633.240234,380.219299 630.082153,402.159912 624.629883,423.755890 
	C623.959839,426.410004 623.353027,429.080078 622.696106,431.829834 
	C569.750671,431.829834 517.129639,431.829834 463.617462,431.829834 
	C461.087006,418.697784 458.499237,405.561646 456.033875,392.402557 
	C452.719543,374.712189 452.237671,356.791016 453.203735,338.933380 
	C454.001282,324.190430 455.381561,309.352386 458.169769,294.877441 
	C461.278656,278.737671 465.448029,262.685852 470.656860,247.097305 
	C476.715912,228.964294 484.506805,211.416580 494.991211,195.262344 
	C503.048920,182.847153 511.216980,170.503281 519.401489,158.171173 
	C520.212585,156.948990 521.480957,156.030304 522.721436,154.657104 
M593.062256,251.410477 
	C588.062988,246.288422 583.717163,240.214752 577.929382,236.241089 
	C565.627380,227.794830 552.048584,223.805038 536.564758,225.755447 
	C522.628662,227.510849 510.863678,233.162323 501.205292,242.564484 
	C487.082947,256.312164 480.477448,273.215881 482.896637,293.355713 
	C484.618530,307.690582 490.450348,319.996490 500.726685,329.711975 
	C513.824829,342.095215 529.517456,348.367188 548.007812,347.080200 
	C567.177551,345.745941 581.711121,336.711487 593.045593,321.709839 
	C601.810852,310.108734 604.964905,296.986176 604.098938,282.627411 
	C603.420898,271.385101 600.066528,261.161530 593.062256,251.410477 
z"/>
<path fill="#5801BF" opacity="1.000000" stroke="none" 
	d="
M539.000000,456.999695 
	C564.142456,456.999695 588.784912,456.999695 614.506409,456.999695 
	C610.484375,466.053406 606.801636,474.514923 602.884277,482.866333 
	C602.535522,483.609802 600.661804,483.950867 599.495544,483.952576 
	C562.182129,484.007446 524.868591,484.024048 487.555542,483.896942 
	C486.094299,483.891968 483.870087,482.778442 483.304047,481.570831 
	C479.638794,473.751526 476.335358,465.762604 472.555511,456.999695 
	C495.063751,456.999695 516.781860,456.999695 539.000000,456.999695 
z"/>
<path fill="#5701BF" opacity="1.000000" stroke="none" 
	d="
M437.932007,428.148407 
	C440.452332,437.460602 442.925293,446.356506 445.447174,455.428314 
	C435.805573,458.468719 426.953217,461.331451 418.053314,464.037872 
	C413.329163,465.474457 410.137695,468.488464 408.043671,472.830719 
	C403.782135,481.667542 399.554077,490.520721 395.237640,499.330658 
	C394.541656,500.751129 393.460876,501.983093 392.201813,503.822540 
	C391.502533,502.520691 391.128326,502.141418 391.112213,501.747559 
	C390.727539,492.334290 390.485107,482.914093 390.000305,473.506317 
	C389.457733,462.976715 388.572845,452.463074 388.170776,441.929749 
	C388.106628,440.249695 389.338165,437.771454 390.739960,436.900604 
	C404.045929,428.634949 417.515625,420.632812 430.949677,412.573975 
	C431.644073,412.157471 432.442657,411.914551 433.673431,411.383270 
	C435.100586,416.923828 436.492615,422.327972 437.932007,428.148407 
z"/>
<path fill="#5701BF" opacity="1.000000" stroke="none" 
	d="
M698.056885,446.431885 
	C697.266602,465.511047 696.512695,484.128479 695.758728,502.745880 
	C695.394897,502.944519 695.031128,503.143158 694.667358,503.341766 
	C693.740967,502.144287 692.584167,501.060913 691.925415,499.730835 
	C687.553833,490.903748 683.270508,482.032715 678.996521,473.157593 
	C676.596436,468.173737 673.214966,464.928467 667.411133,463.587006 
	C659.807922,461.829620 652.425293,459.037384 645.073608,456.346558 
	C643.754883,455.863892 641.948364,453.433533 642.220642,452.382751 
	C645.655334,439.128601 649.425598,425.961273 653.140564,412.780365 
	C653.262817,412.346558 653.707825,412.003693 654.357666,411.153839 
	C668.521545,419.871307 682.673096,428.576904 696.819641,437.290771 
	C700.680054,439.668701 698.942078,442.889771 698.056885,446.431885 
z"/>
<path fill="#5701BF" opacity="1.000000" stroke="none" 
	d="
M553.687500,564.714294 
	C550.886963,570.750671 548.300720,576.470459 545.347290,583.002380 
	C544.111267,581.203552 543.401001,580.372375 542.911560,579.426941 
	C535.979187,566.036072 529.860107,552.326416 527.252319,537.340576 
	C526.717468,534.266846 527.592773,530.732056 526.405212,528.030945 
	C523.622437,521.701416 519.983521,515.748169 516.594421,509.463196 
	C534.608215,509.463196 553.072571,509.463196 572.589417,509.463196 
	C571.037231,512.247681 569.981384,514.944946 568.246094,517.093323 
	C564.194214,522.109802 562.995117,527.756897 562.924194,534.053406 
	C562.801453,544.961548 558.816406,554.847412 553.687500,564.714294 
z"/>
<path fill="#0000FF" opacity="1.000000" stroke="none" 
	d="
M98.495270,423.257050 
	C98.888824,424.662323 98.990982,426.325500 98.991066,427.988647 
	C98.998535,578.017578 98.998337,728.046448 98.995506,878.075378 
	C98.995476,879.407166 98.952858,880.738892 98.882385,882.536743 
	C98.556465,881.618774 98.034958,880.234863 98.034630,878.850769 
	C97.998215,727.901794 98.000549,576.952820 98.007538,426.003876 
	C98.007576,425.174225 98.104523,424.344574 98.495270,423.257050 
z"/>
<path fill="#2E2932" opacity="1.000000" stroke="none" 
	d="
M904.799072,579.799194 
	C892.051819,592.472473 879.554382,604.895569 867.056946,617.318665 
	C867.219788,617.893677 867.382629,618.468628 867.545471,619.043579 
	C872.398010,619.043579 877.273193,618.763428 882.094482,619.151917 
	C884.847656,619.373840 888.598816,619.871155 889.966492,621.694885 
	C892.083984,624.518616 891.050415,628.056946 888.548279,631.234131 
	C885.276917,635.388123 886.693298,643.804504 890.692749,647.856262 
	C893.152405,650.348083 893.204468,656.213318 890.270020,658.163269 
	C886.759827,660.495789 886.837585,663.142029 888.478149,666.258850 
	C890.431702,669.970276 890.583191,673.366821 888.015625,676.982239 
	C887.087219,678.289551 886.682129,680.573975 887.105530,682.120361 
	C888.290283,686.448059 889.899780,690.676697 891.584839,694.846191 
	C894.216064,701.356873 891.776245,705.254944 884.768921,705.274841 
	C871.270386,705.313049 857.770081,705.390564 844.274658,705.182068 
	C842.026184,705.147339 838.260986,704.194763 837.882629,702.888367 
	C837.103088,700.196472 837.375793,696.617554 838.592041,694.057617 
	C840.768311,689.477112 840.567810,687.910828 835.890198,686.817810 
	C831.492249,685.790283 829.416443,680.860168 832.232178,676.552673 
	C834.683655,672.802490 834.315063,669.832581 832.603699,665.939331 
	C831.105164,662.530334 830.701294,658.547119 835.177856,655.953064 
	C837.914673,654.367126 837.797302,651.481750 835.211060,649.961792 
	C831.958252,648.050232 832.261780,645.301086 831.788940,642.311035 
	C830.647156,635.091736 833.980835,628.869995 835.864075,622.378845 
	C836.297668,620.884338 839.273071,619.388489 841.200134,619.211060 
	C846.075989,618.762085 851.020874,619.062073 855.687927,619.062073 
	C848.012573,611.327148 840.611267,603.868408 832.533020,595.727600 
	C815.307251,617.928101 797.516907,640.856140 778.981201,664.744873 
	C781.638672,664.953796 783.309753,665.192993 784.981628,665.199036 
	C795.480408,665.237122 805.980103,665.292297 816.478027,665.192139 
	C820.531677,665.153442 822.705750,666.668762 822.975769,670.923767 
	C823.082825,672.611206 823.815186,674.384521 824.681335,675.875610 
	C827.765686,681.185181 826.023193,685.481384 820.028137,686.939392 
	C816.898499,687.700500 816.593750,690.052429 818.015503,693.407227 
	C819.209656,696.224854 820.292358,699.923279 819.373108,702.500000 
	C818.793091,704.125732 814.453857,705.114990 811.776428,705.168579 
	C798.616333,705.432129 785.447998,705.317261 772.282837,705.272949 
	C765.455994,705.250000 763.138489,701.765015 765.470032,695.195740 
	C766.979675,690.942322 768.813232,686.770142 769.880737,682.409546 
	C770.321899,680.607239 769.472046,678.252991 768.625122,676.419678 
	C766.790833,672.449158 766.355042,668.889465 769.724792,665.458618 
	C770.980591,664.180054 771.936768,662.558167 772.830383,660.980103 
	C790.237732,630.240479 807.608765,599.480347 825.013428,568.739258 
	C826.285522,566.492432 827.757080,564.358459 829.568115,561.486755 
	C840.219421,572.620911 850.313232,583.172302 860.763977,594.096863 
	C863.154663,592.002075 864.540649,590.918457 865.776672,589.684570 
	C882.878479,572.612976 899.879089,555.438782 917.116455,538.505554 
	C920.412354,535.267822 920.540588,533.223145 917.100891,530.162598 
	C912.938354,526.458923 909.219299,522.256897 904.419556,517.364685 
	C907.036438,516.692688 908.334534,516.190491 909.671936,516.041687 
	C924.406738,514.402954 939.149536,512.835938 953.885315,511.205841 
	C956.723999,510.891846 959.049805,511.081451 958.663147,514.848694 
	C957.013184,530.920166 955.345581,546.989929 953.661438,563.057861 
	C953.631165,563.346863 953.315613,563.605835 952.690674,564.540833 
	C951.325195,563.619995 949.802917,562.864319 948.623657,561.746765 
	C945.237732,558.538330 941.880798,555.284424 938.726135,551.851990 
	C936.473633,549.401123 934.821655,549.671143 932.591187,551.943909 
	C923.487061,561.220764 914.242065,570.359497 904.799072,579.799194 
M865.499634,668.200439 
	C857.501282,668.206970 849.497559,668.067627 841.510071,668.365051 
	C840.193665,668.414062 838.948669,670.379089 837.670654,671.458618 
	C838.832703,672.507812 839.981506,674.452515 841.158752,674.469910 
	C855.152344,674.676819 869.151306,674.672302 883.144897,674.460938 
	C884.391724,674.442078 885.610840,672.589355 886.842834,671.588379 
	C885.560486,670.468445 884.338440,668.475281 882.985168,668.381714 
	C877.511841,668.003296 871.998108,668.209900 865.499634,668.200439 
M806.474976,668.193665 
	C795.678833,668.201965 784.880554,668.114197 774.089294,668.347351 
	C772.829224,668.374512 771.607300,670.172363 770.367737,671.149292 
	C771.438110,672.292664 772.493225,674.414429 773.581177,674.431396 
	C787.860840,674.654419 802.145996,674.643311 816.426636,674.455322 
	C817.512329,674.441101 818.574524,672.644348 819.647644,671.676086 
	C818.575073,670.533752 817.636353,668.617126 816.403198,668.404114 
	C813.497314,667.902161 810.451172,668.212341 806.474976,668.193665 
M835.555908,683.381531 
	C850.005981,683.564209 864.455933,683.759827 878.906250,683.916809 
	C881.301941,683.942871 884.216125,683.848694 883.448059,680.474609 
	C883.152222,679.175415 880.522644,677.564148 878.930908,677.536011 
	C865.625122,677.300598 852.313232,677.431213 839.003479,677.381775 
	C835.037476,677.367065 833.271912,678.773499 835.555908,683.381531 
M813.401428,683.938232 
	C814.729370,683.935120 816.062683,684.006775 817.384155,683.912537 
	C819.742371,683.744324 822.823853,684.512024 822.826050,680.618103 
	C822.828247,676.631531 819.651123,677.457153 817.358459,677.443237 
	C804.411255,677.364319 791.463318,677.388550 778.515747,677.424988 
	C776.249512,677.431396 773.617859,677.012207 773.647034,680.679504 
	C773.676025,684.317871 776.289185,683.904968 778.562927,683.912537 
	C789.850525,683.950256 801.138306,683.934875 813.401428,683.938232 
M867.496216,637.649231 
	C871.320435,637.645630 875.147278,637.725830 878.967834,637.605896 
	C881.146484,637.537537 883.946960,638.215454 884.017456,634.510620 
	C884.086731,630.871033 881.460388,631.226196 879.161316,631.221436 
	C866.025940,631.194397 852.890503,631.197998 839.755127,631.218384 
	C837.414246,631.222046 834.424194,631.073669 835.138977,634.533386 
	C835.403503,635.814148 837.991821,637.437866 839.566223,637.488770 
	C848.535645,637.778809 857.518921,637.640869 867.496216,637.649231 
M858.500000,646.938416 
	C865.474304,646.932129 872.457520,647.110718 879.416260,646.778564 
	C880.989502,646.703430 883.447998,645.111389 883.807800,643.765503 
	C884.608215,640.771484 881.985291,640.429138 879.698425,640.426819 
	C866.247986,640.412842 852.797546,640.407837 839.347107,640.436096 
	C837.132202,640.440796 834.379150,640.592957 835.189514,643.684082 
	C835.547974,645.051208 837.991028,646.676025 839.575134,646.774231 
	C845.530579,647.143372 851.522095,646.932068 858.500000,646.938416 
M871.496704,628.255432 
	C875.329346,628.252075 879.162292,628.277893 882.994507,628.233887 
	C885.137268,628.209229 887.578552,628.544556 887.579773,625.202332 
	C887.580933,621.906982 885.192200,622.105469 883.017639,622.102112 
	C869.686646,622.081177 856.355713,622.082397 843.024719,622.099548 
	C840.851807,622.102295 838.466736,621.875244 838.450623,625.174988 
	C838.434326,628.506653 840.842407,628.229736 843.002686,628.235657 
	C852.167664,628.260986 861.332764,628.251953 871.496704,628.255432 
M769.226135,696.453735 
	C767.085022,700.898315 767.637939,702.025879 772.431824,702.057190 
	C785.715698,702.143982 799.002075,702.187439 812.282715,701.962280 
	C813.850220,701.935730 816.451294,700.366455 816.730774,699.104370 
	C817.444336,695.881714 814.549133,696.089355 812.427734,696.091736 
	C798.315063,696.107666 784.202393,696.171875 769.226135,696.453735 
M861.500183,696.062012 
	C855.673950,696.069397 849.839233,695.911804 844.027771,696.208557 
	C842.693970,696.276611 841.440002,697.907043 840.149292,698.818420 
	C841.434570,699.904419 842.704163,701.912354 844.007385,701.934387 
	C857.653564,702.165466 871.306519,702.165283 884.953003,701.948425 
	C886.356018,701.926147 887.730042,700.083923 889.117554,699.086243 
	C887.735962,698.085388 886.386353,696.275208 884.967346,696.218994 
	C877.487915,695.922913 869.990906,696.069275 861.500183,696.062012 
M842.637939,659.086304 
	C841.972839,659.087280 841.292236,658.996399 840.645508,659.106018 
	C838.455811,659.477356 835.084473,657.950195 835.032898,662.043457 
	C834.976807,666.494324 838.585632,665.166199 840.909180,665.189087 
	C853.378357,665.311768 865.849854,665.307007 878.319092,665.189697 
	C880.491272,665.169312 883.807129,666.432556 883.909241,662.285461 
	C884.010559,658.168640 880.773987,659.149109 878.517395,659.131653 
	C866.879089,659.041687 855.239746,659.087646 842.637939,659.086304 
M884.236633,656.080872 
	C886.518555,655.948120 889.282593,656.395264 889.080811,652.773804 
	C888.879639,649.164307 885.967590,649.904785 883.818298,649.892151 
	C871.032104,649.816956 858.244995,649.819580 845.458679,649.884460 
	C843.127747,649.896240 839.990112,649.176208 840.177063,653.207275 
	C840.346741,656.864258 843.292542,656.035706 845.426331,656.048523 
	C858.046448,656.123901 870.667358,656.086975 884.236633,656.080872 
M779.569580,686.843689 
	C778.405640,686.844971 777.224854,686.720825 776.081177,686.873718 
	C773.720093,687.189392 770.119507,685.704041 770.209229,690.101257 
	C770.290466,694.082031 773.619690,693.019165 775.860657,693.040527 
	C786.834167,693.145508 797.809509,693.122803 808.783630,693.053711 
	C810.957214,693.040039 813.818298,693.736328 813.917419,690.060364 
	C814.016846,686.370239 811.205994,686.894043 808.982056,686.879456 
	C799.504456,686.817200 790.026245,686.847107 779.569580,686.843689 
M877.431213,693.093201 
	C878.927795,693.090088 880.427795,693.150513 881.920105,693.068970 
	C884.142822,692.947449 886.946594,693.602051 886.919128,689.927368 
	C886.891479,686.220764 884.019958,686.898499 881.848267,686.885437 
	C870.541199,686.817627 859.230896,686.740784 847.928772,686.985474 
	C846.317383,687.020264 843.618042,688.562500 843.366821,689.801331 
	C842.657288,693.299744 845.719421,693.055115 848.017212,693.065430 
	C857.495422,693.107910 866.973877,693.089355 877.431213,693.093201 
z"/>
<path fill="#2D2A2D" opacity="1.000000" stroke="none" 
	d="
M224.974701,726.902161 
	C224.305145,720.198914 223.977173,713.769836 223.571884,705.825256 
	C222.322342,708.004822 221.447128,708.941528 221.230179,710.011658 
	C220.273361,714.731567 219.494888,719.488037 218.673584,724.234985 
	C217.865265,728.906982 214.610855,731.907593 210.262070,731.954468 
	C205.885193,732.001648 201.828491,728.922607 201.877365,724.383057 
	C202.073318,706.183960 207.420273,689.866150 223.144897,679.307312 
	C237.996979,669.334412 254.177750,669.107117 269.392090,678.475586 
	C285.974182,688.686340 291.528534,705.253845 292.041260,723.803223 
	C292.175720,728.666992 288.214447,731.964783 283.672424,731.970093 
	C279.164856,731.975464 275.955353,728.847656 275.126984,723.817261 
	C274.169342,718.001831 273.105316,712.203979 272.087463,706.398499 
	C271.333862,706.453552 270.580292,706.508606 269.826691,706.563660 
	C269.826691,711.532776 269.576477,716.518188 269.898712,721.466309 
	C270.206207,726.187988 268.637115,727.960205 263.718658,727.788757 
	C250.926270,727.343079 238.118149,727.349976 224.974701,726.902161 
z"/>
<path fill="#31263B" opacity="1.000000" stroke="none" 
	d="
M951.487732,705.367188 
	C937.711792,705.370300 924.381714,705.399841 911.051880,705.359497 
	C903.641113,705.337097 900.955566,700.684875 904.569580,694.269043 
	C907.276062,689.464355 906.840637,688.324280 901.698364,686.752747 
	C897.927856,685.600464 895.993347,680.190918 898.717285,676.435608 
	C901.425720,672.701843 900.953186,669.787292 899.049194,665.958130 
	C897.408813,662.659058 897.230530,658.803955 901.114868,656.208191 
	C904.095154,654.216553 903.843994,652.038818 901.368286,649.760437 
	C900.419006,648.886719 898.805420,647.853394 898.836365,646.938232 
	C899.047119,640.715454 896.252319,634.263000 900.637390,628.246277 
	C901.605835,626.917419 901.105591,623.404602 899.969238,621.868042 
	C896.811218,617.597839 897.130188,613.478760 900.824280,609.739746 
	C902.057800,608.491272 901.977173,605.513245 901.778564,603.393188 
	C901.544556,600.896484 899.735291,598.343506 900.107605,596.059204 
	C900.400330,594.262817 902.937805,591.491272 904.529724,591.455627 
	C919.849915,591.112793 935.181519,591.209290 950.508179,591.354492 
	C951.787476,591.366577 953.829407,592.373352 954.193298,593.391235 
	C955.767883,597.795227 957.240906,602.318115 957.913269,606.920166 
	C958.170715,608.682434 956.623291,611.247192 955.132507,612.606506 
	C952.565491,614.947144 952.441162,616.857971 954.658691,619.295837 
	C958.248230,623.242004 958.421082,626.491394 955.350281,630.746643 
	C952.202087,635.108887 953.100525,643.917297 957.086609,647.770447 
	C959.874695,650.465576 959.865295,656.262146 956.576233,658.359802 
	C952.867676,660.724976 953.515808,663.387573 955.061523,666.398743 
	C956.973328,670.122864 956.924438,673.453308 954.476074,677.127380 
	C953.433350,678.692078 953.504456,681.518066 954.037781,683.511780 
	C955.367554,688.483398 957.751221,693.204651 958.774902,698.217834 
	C959.799866,703.237488 957.748169,704.936218 951.487732,705.367188 
M924.500061,646.886108 
	C931.808289,646.875671 939.123352,647.025879 946.419006,646.717163 
	C947.850586,646.656555 949.207214,644.821594 950.598389,643.804932 
	C949.295654,642.696106 948.008972,640.645996 946.687622,640.623535 
	C932.905701,640.388367 919.116699,640.388733 905.334778,640.623657 
	C904.011536,640.646118 902.722717,642.689331 901.417847,643.794373 
	C902.799194,644.814453 904.134705,646.632935 905.569824,646.715332 
	C911.530212,647.057312 917.520752,646.875488 924.500061,646.886108 
M911.588074,637.602295 
	C923.057434,637.596069 934.529358,637.705933 945.993103,637.447449 
	C947.550598,637.412231 950.093506,635.769531 950.394775,634.460327 
	C951.090637,631.435547 948.419495,631.257935 946.150696,631.254395 
	C940.499146,631.245544 934.847595,631.237305 929.196045,631.239746 
	C921.217407,631.243225 913.232910,631.105347 905.265869,631.414856 
	C903.945129,631.466187 902.700989,633.489929 901.421509,634.602173 
	C902.660400,635.587524 903.765137,637.020081 905.172974,637.442505 
	C906.854248,637.947083 908.794861,637.586853 911.588074,637.602295 
M945.421753,609.881470 
	C946.753540,609.879272 948.095642,609.981262 949.414917,609.851746 
	C951.700195,609.627380 954.923584,610.712830 954.914368,606.691528 
	C954.905396,602.733093 951.728333,603.507507 949.415771,603.493591 
	C936.597534,603.416443 923.778503,603.432617 910.960022,603.486877 
	C908.711243,603.496338 905.976318,603.095825 905.969238,606.714905 
	C905.961975,610.428101 908.795410,609.825134 910.984070,609.839233 
	C922.137573,609.911011 933.291748,609.877747 945.421753,609.881470 
M921.500854,677.448120 
	C916.174133,677.455444 910.846863,677.423035 905.520874,677.489624 
	C903.379822,677.516357 900.985046,677.309692 900.948425,680.608398 
	C900.912231,683.868530 903.211487,683.841248 905.413208,683.845825 
	C918.730103,683.873840 932.048828,683.963135 945.361389,683.724243 
	C946.906738,683.696655 948.418091,681.774231 949.945190,680.730286 
	C948.454163,679.644470 947.000854,677.686462 945.465759,677.620117 
	C937.822449,677.289734 930.157715,677.457031 921.500854,677.448120 
M904.188477,669.781738 
	C903.138245,673.952454 905.582458,674.600830 908.896606,674.591064 
	C921.892700,674.552856 934.889160,674.610046 947.885010,674.544250 
	C950.072876,674.533142 952.910645,675.123291 952.942078,671.431885 
	C952.973511,667.736572 950.191956,668.282532 947.959595,668.274658 
	C934.963440,668.228882 921.967041,668.226624 908.971069,668.287659 
	C907.525269,668.294495 906.081848,668.795105 904.188477,669.781738 
M935.493530,600.592041 
	C939.487427,600.583191 943.482056,600.614685 947.475037,600.549316 
	C949.637817,600.513916 952.488464,600.578125 951.726440,597.412415 
	C951.406738,596.084534 948.866516,594.425171 947.309204,594.397339 
	C934.000183,594.158569 920.685120,594.254639 907.371826,594.264893 
	C905.133789,594.266602 902.911865,594.256836 902.944397,597.507080 
	C902.978333,600.890015 905.457214,600.525513 907.536987,600.541382 
	C916.523010,600.609924 925.509644,600.583191 935.493530,600.592041 
M952.812012,655.946899 
	C953.682007,654.655090 954.552002,653.363342 955.421875,652.071533 
	C954.107239,651.360291 952.799866,650.046936 951.476868,650.030945 
	C938.194031,649.870544 924.908447,649.893799 911.624023,649.945129 
	C909.444214,649.953552 906.560913,649.292358 906.544861,652.967712 
	C906.528687,656.654663 909.402405,655.997192 911.590820,656.004150 
	C925.041443,656.047119 938.492249,656.010925 952.812012,655.946899 
M937.474915,659.131653 
	C926.690796,659.141357 915.904541,659.055786 905.125366,659.292114 
	C903.903992,659.318970 902.722351,661.157166 901.522339,662.155396 
	C902.538391,663.153687 903.542969,665.007568 904.572144,665.021301 
	C918.837402,665.211609 933.106750,665.211792 947.371948,665.021973 
	C948.428284,665.007874 949.460510,663.184082 950.503967,662.201599 
	C949.475769,661.199158 948.550232,659.500305 947.399231,659.330750 
	C944.473694,658.899475 941.447327,659.152588 937.474915,659.131653 
M932.499939,696.111145 
	C925.348267,696.114807 918.196472,696.100769 911.044922,696.132751 
	C908.884827,696.142395 906.090210,695.961182 906.707275,699.175842 
	C906.932373,700.348389 909.366333,701.889099 910.813416,701.911499 
	C924.281921,702.119751 937.756409,702.119263 951.224854,701.908020 
	C952.671326,701.885315 955.109192,700.330139 955.327637,699.157898 
	C955.929565,695.927307 953.101685,696.155029 950.963135,696.138184 
	C945.142334,696.092285 939.320984,696.115479 932.499939,696.111145 
M950.942383,622.206482 
	C936.949951,622.191528 922.956299,622.091492 908.967224,622.299744 
	C907.639771,622.319519 906.341125,624.271362 905.029114,625.326294 
	C906.271484,626.274902 907.502319,628.030579 908.757874,628.048401 
	C922.581177,628.245117 936.408752,628.218750 950.233704,628.087341 
	C951.424438,628.076050 953.544250,626.933594 953.582764,626.226685 
	C953.651917,624.956970 952.468140,623.619019 950.942383,622.206482 
M916.505493,612.908203 
	C912.846130,612.914429 909.185913,612.875610 905.527710,612.944153 
	C903.388794,612.984253 900.965393,612.734924 901.016663,616.067688 
	C901.068970,619.470215 903.616638,618.991333 905.672485,618.999268 
	C918.812744,619.050110 931.955078,619.124146 945.091858,618.901062 
	C946.699768,618.873840 949.424988,617.340149 949.654419,616.129578 
	C950.328125,612.575012 947.195801,612.957153 944.948425,612.942810 
	C935.800293,612.884399 926.651611,612.912048 916.505493,612.908203 
M951.630188,692.789612 
	C952.195984,691.420349 952.761719,690.051147 953.327515,688.681885 
	C951.907227,688.096924 950.492859,687.021973 949.065613,687.004578 
	C937.591003,686.865051 926.111633,686.812256 914.640442,687.052856 
	C913.039368,687.086365 910.325012,688.656738 910.109863,689.868225 
	C909.474304,693.445496 912.640869,692.996216 914.861511,693.000793 
	C926.835815,693.025574 938.810303,692.965271 951.630188,692.789612 
z"/>
<path fill="#2D2A2D" opacity="1.000000" stroke="none" 
	d="
M230.136749,657.672485 
	C225.931854,646.563965 229.267380,636.768188 238.522675,632.189087 
	C247.115494,627.937744 257.562531,630.768677 262.769928,638.759644 
	C268.521942,647.586365 265.922729,659.420715 256.992065,665.066711 
	C247.779877,670.890686 236.797165,667.984680 230.136749,657.672485 
z"/>
<path fill="#2E2931" opacity="1.000000" stroke="none" 
	d="
M306.555176,593.586426 
	C309.636047,582.080444 315.108582,576.618591 324.376953,575.474792 
	C336.686707,573.955627 348.706665,586.053772 346.791107,598.322632 
	C346.561768,599.791626 344.610046,601.615051 343.113556,602.026550 
	C342.231018,602.269287 340.275116,600.272095 339.526428,598.889893 
	C338.712677,597.387512 338.738770,595.430237 338.391846,593.636108 
	C337.727142,593.827698 337.235321,593.868774 337.214752,593.989868 
	C336.071808,600.715515 336.075806,600.716492 328.880524,600.721558 
	C327.050323,600.722900 325.204987,600.570251 323.392853,600.751221 
	C318.732483,601.216492 314.956055,600.686462 315.865753,593.375977 
	C312.846405,596.811340 314.889038,603.395386 308.991089,602.016968 
	C304.785126,601.033997 306.168365,597.058228 306.555176,593.586426 
z"/>
<path fill="#2E2930" opacity="1.000000" stroke="none" 
	d="
M153.745224,595.540405 
	C153.490524,597.020569 153.661423,598.472290 153.017273,599.242004 
	C151.979431,600.481995 150.301636,602.150757 149.084213,602.008789 
	C147.831985,601.862732 146.084061,599.907593 145.805374,598.496765 
	C144.415421,591.460144 150.430191,580.797729 157.347900,577.389099 
	C164.885010,573.675171 174.796051,574.727112 179.703171,581.239868 
	C183.031784,585.657715 184.629929,591.517822 186.297958,596.949158 
	C186.705994,598.277832 184.354355,600.453918 183.271500,602.240417 
	C181.782394,600.814209 180.114853,599.525024 178.873581,597.908508 
	C178.170837,596.993347 178.167831,595.540894 177.364777,594.001770 
	C177.753876,601.191528 173.129257,600.613770 168.701675,600.396057 
	C167.044418,600.314514 165.379791,600.385010 163.718521,600.382141 
	C156.374557,600.369568 156.374557,600.369019 155.178574,593.071777 
	C154.544067,594.057556 154.174530,594.631714 153.745224,595.540405 
z"/>
<path fill="#2D2A2F" opacity="1.000000" stroke="none" 
	d="
M267.145386,584.108582 
	C262.913025,588.433472 262.566345,588.228027 257.893738,578.347168 
	C258.314545,585.613281 253.921509,585.038452 249.694321,584.924011 
	C245.575424,584.812561 241.451141,584.899902 237.198044,584.899902 
	C236.756073,582.474915 236.410889,580.580872 236.065704,578.686890 
	C235.751709,578.640991 235.437729,578.595093 235.123734,578.549194 
	C234.816650,580.016296 234.902679,581.762634 234.107040,582.882690 
	C233.010284,584.426697 231.247711,585.497681 229.770325,586.771240 
	C228.710632,585.284851 226.871613,583.874268 226.718536,582.299744 
	C225.769226,572.535400 233.287994,562.423828 242.713364,560.288330 
	C252.506989,558.069519 262.030457,563.403076 265.553986,573.511169 
	C266.676483,576.731445 266.725250,580.325928 267.145386,584.108582 
z"/>
<path fill="#2E2930" opacity="1.000000" stroke="none" 
	d="
M166.036774,636.993774 
	C167.987915,641.705933 169.955475,646.066650 171.330338,650.606934 
	C172.131973,653.254211 171.652405,656.295166 168.144119,656.764771 
	C164.911331,657.197571 164.035156,654.687195 163.692642,651.974731 
	C163.554565,650.881470 163.185837,649.817261 162.533524,648.294922 
	C161.528656,659.947266 153.017776,653.707153 147.823074,654.957092 
	C143.916016,655.897217 140.153137,655.215698 139.354141,649.692749 
	C139.001083,650.814575 138.935028,652.181885 138.231689,653.004028 
	C136.994339,654.450256 135.367401,655.563171 133.903625,656.815674 
	C132.936951,655.311951 131.244278,653.863953 131.124008,652.295349 
	C130.453384,643.547913 135.675308,634.856201 143.129395,631.629395 
	C151.128876,628.166504 158.969711,629.926025 166.036774,636.993774 
z"/>
<path fill="#2E2930" opacity="1.000000" stroke="none" 
	d="
M358.746582,653.403076 
	C357.199768,654.791382 355.662231,656.588074 354.240082,656.500977 
	C353.133514,656.433167 351.966614,654.121521 351.207855,652.615051 
	C350.590424,651.389221 350.538452,649.878601 350.095306,647.852295 
	C348.909241,650.665527 348.575958,653.680481 347.025513,654.567200 
	C345.113373,655.660828 342.188721,655.001526 339.700714,655.063904 
	C338.204590,655.101379 336.685883,654.909119 335.213470,655.099609 
	C330.279480,655.738037 326.941742,654.591492 326.703735,648.487549 
	C326.344299,650.101685 326.362732,651.958130 325.524719,653.265442 
	C324.587311,654.727783 322.873566,655.692444 321.497620,656.873657 
	C320.350555,655.470886 318.390778,654.175171 318.189697,652.647888 
	C316.976471,643.433594 324.362122,633.012573 333.430023,630.608398 
	C343.071411,628.052124 352.689606,632.760925 356.521942,642.372803 
	C357.844971,645.691162 358.075806,649.445007 358.746582,653.403076 
z"/>
<path fill="#2E2931" opacity="1.000000" stroke="none" 
	d="
M172.986053,569.895020 
	C170.053116,573.208313 166.536392,574.752747 163.006165,572.681335 
	C160.716385,571.337708 158.593323,568.596802 157.819443,566.049316 
	C156.715973,562.416992 158.660416,559.173279 162.130478,557.416443 
	C165.547318,555.686462 168.998627,556.029480 171.816498,558.724854 
	C175.123001,561.887695 175.446976,565.626709 172.986053,569.895020 
z"/>
<path fill="#2E2932" opacity="1.000000" stroke="none" 
	d="
M328.341003,556.695312 
	C334.143921,559.358032 336.137543,563.071228 334.564453,567.689453 
	C333.171936,571.777527 328.854431,574.203064 324.673035,573.246277 
	C320.428833,572.275146 317.628571,568.357605 318.071198,564.010376 
	C318.559235,559.217163 322.044647,556.613525 328.341003,556.695312 
z"/>
<path fill="#2E2931" opacity="1.000000" stroke="none" 
	d="
M240.280426,554.691345 
	C237.144547,548.112732 239.039200,542.646912 244.731705,541.306030 
	C248.891418,540.326172 252.294022,541.647461 254.452911,545.447693 
	C256.502441,549.055542 255.548813,553.690491 252.134430,556.118958 
	C248.021881,559.044006 244.074707,558.548035 240.280426,554.691345 
z"/>
<path fill="#2E2931" opacity="1.000000" stroke="none" 
	d="
M158.585342,623.482849 
	C156.034180,627.454895 152.439789,629.245178 148.630203,627.463562 
	C146.158508,626.307678 143.292694,623.288574 143.029755,620.843384 
	C142.741684,618.164490 144.596222,614.505676 146.692566,612.506775 
	C149.403305,609.922119 153.254761,610.488525 156.288773,612.902283 
	C159.689301,615.607727 160.400330,619.139465 158.585342,623.482849 
z"/>
<path fill="#2E2932" opacity="1.000000" stroke="none" 
	d="
M330.416016,616.778931 
	C332.333984,612.447571 335.643585,610.077393 339.639923,611.355530 
	C342.351501,612.222778 345.658569,614.969666 346.308258,617.491760 
	C346.959747,620.021118 345.464966,624.375488 343.398071,625.974304 
	C341.338928,627.567139 337.042511,627.709473 334.371826,626.729858 
	C330.430206,625.284241 329.282623,621.376831 330.416016,616.778931 
z"/>
<path fill="#000000" opacity="1.000000" stroke="none" 
	d="
M593.281494,251.706558 
	C600.066528,261.161530 603.420898,271.385101 604.098938,282.627411 
	C604.964905,296.986176 601.810852,310.108734 593.045593,321.709839 
	C581.711121,336.711487 567.177551,345.745941 548.007812,347.080200 
	C529.517456,348.367188 513.824829,342.095215 500.726685,329.711975 
	C490.450348,319.996490 484.618530,307.690582 482.896637,293.355713 
	C480.477448,273.215881 487.082947,256.312164 501.205292,242.564484 
	C510.863678,233.162323 522.628662,227.510849 536.564758,225.755447 
	C552.048584,223.805038 565.627380,227.794830 577.929382,236.241089 
	C583.717163,240.214752 588.062988,246.288422 593.281494,251.706558 
M536.724365,322.003784 
	C537.556702,322.013336 538.410278,321.904785 539.218201,322.050232 
	C550.767212,324.128967 560.696411,320.495178 568.788391,312.546478 
	C577.014526,304.466003 580.128479,294.392181 579.118774,282.671722 
	C577.091858,259.143616 554.564819,246.076248 534.165100,251.468002 
	C516.501831,256.136475 507.691895,269.568115 507.302643,286.398987 
	C506.941193,302.027802 515.756958,316.641998 536.724365,322.003784 
z"/>
<path fill="#5306AD" opacity="1.000000" stroke="none" 
	d="
M865.999451,668.200439 
	C871.998108,668.209900 877.511841,668.003296 882.985168,668.381714 
	C884.338440,668.475281 885.560486,670.468445 886.842834,671.588379 
	C885.610840,672.589355 884.391724,674.442078 883.144897,674.460938 
	C869.151306,674.672302 855.152344,674.676819 841.158752,674.469910 
	C839.981506,674.452515 838.832703,672.507812 837.670654,671.458618 
	C838.948669,670.379089 840.193665,668.414062 841.510071,668.365051 
	C849.497559,668.067627 857.501282,668.206970 865.999451,668.200439 
z"/>
<path fill="#5206AC" opacity="1.000000" stroke="none" 
	d="
M806.968384,668.193848 
	C810.451172,668.212341 813.497314,667.902161 816.403198,668.404114 
	C817.636353,668.617126 818.575073,670.533752 819.647644,671.676086 
	C818.574524,672.644348 817.512329,674.441101 816.426636,674.455322 
	C802.145996,674.643311 787.860840,674.654419 773.581177,674.431396 
	C772.493225,674.414429 771.438110,672.292664 770.367737,671.149292 
	C771.607300,670.172363 772.829224,668.374512 774.089294,668.347351 
	C784.880554,668.114197 795.678833,668.201965 806.968384,668.193848 
z"/>
<path fill="#5207AA" opacity="1.000000" stroke="none" 
	d="
M835.248413,683.112854 
	C833.271912,678.773499 835.037476,677.367065 839.003479,677.381775 
	C852.313232,677.431213 865.625122,677.300598 878.930908,677.536011 
	C880.522644,677.564148 883.152222,679.175415 883.448059,680.474609 
	C884.216125,683.848694 881.301941,683.942871 878.906250,683.916809 
	C864.455933,683.759827 850.005981,683.564209 835.248413,683.112854 
z"/>
<path fill="#5207AB" opacity="1.000000" stroke="none" 
	d="
M812.913696,683.938232 
	C801.138306,683.934875 789.850525,683.950256 778.562927,683.912537 
	C776.289185,683.904968 773.676025,684.317871 773.647034,680.679504 
	C773.617859,677.012207 776.249512,677.431396 778.515747,677.424988 
	C791.463318,677.388550 804.411255,677.364319 817.358459,677.443237 
	C819.651123,677.457153 822.828247,676.631531 822.826050,680.618103 
	C822.823853,684.512024 819.742371,683.744324 817.384155,683.912537 
	C816.062683,684.006775 814.729370,683.935120 812.913696,683.938232 
z"/>
<path fill="#5306AD" opacity="1.000000" stroke="none" 
	d="
M866.996826,637.648865 
	C857.518921,637.640869 848.535645,637.778809 839.566223,637.488770 
	C837.991821,637.437866 835.403503,635.814148 835.138977,634.533386 
	C834.424194,631.073669 837.414246,631.222046 839.755127,631.218384 
	C852.890503,631.197998 866.025940,631.194397 879.161316,631.221436 
	C881.460388,631.226196 884.086731,630.871033 884.017456,634.510620 
	C883.946960,638.215454 881.146484,637.537537 878.967834,637.605896 
	C875.147278,637.725830 871.320435,637.645630 866.996826,637.648865 
z"/>
<path fill="#5207AB" opacity="1.000000" stroke="none" 
	d="
M858.000000,646.938354 
	C851.522095,646.932068 845.530579,647.143372 839.575134,646.774231 
	C837.991028,646.676025 835.547974,645.051208 835.189514,643.684082 
	C834.379150,640.592957 837.132202,640.440796 839.347107,640.436096 
	C852.797546,640.407837 866.247986,640.412842 879.698425,640.426819 
	C881.985291,640.429138 884.608215,640.771484 883.807800,643.765503 
	C883.447998,645.111389 880.989502,646.703430 879.416260,646.778564 
	C872.457520,647.110718 865.474304,646.932129 858.000000,646.938354 
z"/>
<path fill="#5603B7" opacity="1.000000" stroke="none" 
	d="
M870.997253,628.255432 
	C861.332764,628.251953 852.167664,628.260986 843.002686,628.235657 
	C840.842407,628.229736 838.434326,628.506653 838.450623,625.174988 
	C838.466736,621.875244 840.851807,622.102295 843.024719,622.099548 
	C856.355713,622.082397 869.686646,622.081177 883.017639,622.102112 
	C885.192200,622.105469 887.580933,621.906982 887.579773,625.202332 
	C887.578552,628.544556 885.137268,628.209229 882.994507,628.233887 
	C879.162292,628.277893 875.329346,628.252075 870.997253,628.255432 
z"/>
<path fill="#5504B4" opacity="1.000000" stroke="none" 
	d="
M769.657959,696.337036 
	C784.202393,696.171875 798.315063,696.107666 812.427734,696.091736 
	C814.549133,696.089355 817.444336,695.881714 816.730774,699.104370 
	C816.451294,700.366455 813.850220,701.935730 812.282715,701.962280 
	C799.002075,702.187439 785.715698,702.143982 772.431824,702.057190 
	C767.637939,702.025879 767.085022,700.898315 769.657959,696.337036 
z"/>
<path fill="#5504B4" opacity="1.000000" stroke="none" 
	d="
M862.000122,696.062012 
	C869.990906,696.069275 877.487915,695.922913 884.967346,696.218994 
	C886.386353,696.275208 887.735962,698.085388 889.117554,699.086182 
	C887.730042,700.083923 886.356018,701.926147 884.953003,701.948425 
	C871.306519,702.165283 857.653564,702.165466 844.007385,701.934387 
	C842.704163,701.912354 841.434570,699.904419 840.149292,698.818420 
	C841.440002,697.907043 842.693970,696.276611 844.027771,696.208557 
	C849.839233,695.911804 855.673950,696.069397 862.000122,696.062012 
z"/>
<path fill="#5603B8" opacity="1.000000" stroke="none" 
	d="
M843.119385,659.086243 
	C855.239746,659.087646 866.879089,659.041687 878.517395,659.131653 
	C880.773987,659.149109 884.010559,658.168640 883.909241,662.285461 
	C883.807129,666.432556 880.491272,665.169312 878.319092,665.189697 
	C865.849854,665.307007 853.378357,665.311768 840.909180,665.189087 
	C838.585632,665.166199 834.976807,666.494324 835.032898,662.043457 
	C835.084473,657.950195 838.455811,659.477356 840.645508,659.106018 
	C841.292236,658.996399 841.972839,659.087280 843.119385,659.086243 
z"/>
<path fill="#5504B6" opacity="1.000000" stroke="none" 
	d="
M883.762329,656.084351 
	C870.667358,656.086975 858.046448,656.123901 845.426331,656.048523 
	C843.292542,656.035706 840.346741,656.864258 840.177063,653.207275 
	C839.990112,649.176208 843.127747,649.896240 845.458679,649.884460 
	C858.244995,649.819580 871.032104,649.816956 883.818298,649.892151 
	C885.967590,649.904785 888.879639,649.164307 889.080811,652.773804 
	C889.282593,656.395264 886.518555,655.948120 883.762329,656.084351 
z"/>
<path fill="#5504B5" opacity="1.000000" stroke="none" 
	d="
M780.058899,686.843567 
	C790.026245,686.847107 799.504456,686.817200 808.982056,686.879456 
	C811.205994,686.894043 814.016846,686.370239 813.917419,690.060364 
	C813.818298,693.736328 810.957214,693.040039 808.783630,693.053711 
	C797.809509,693.122803 786.834167,693.145508 775.860657,693.040527 
	C773.619690,693.019165 770.290466,694.082031 770.209229,690.101257 
	C770.119507,685.704041 773.720093,687.189392 776.081177,686.873718 
	C777.224854,686.720825 778.405640,686.844971 780.058899,686.843567 
z"/>
<path fill="#5504B5" opacity="1.000000" stroke="none" 
	d="
M876.941772,693.093262 
	C866.973877,693.089355 857.495422,693.107910 848.017212,693.065430 
	C845.719421,693.055115 842.657288,693.299744 843.366821,689.801331 
	C843.618042,688.562500 846.317383,687.020264 847.928772,686.985474 
	C859.230896,686.740784 870.541199,686.817627 881.848267,686.885437 
	C884.019958,686.898499 886.891479,686.220764 886.919128,689.927368 
	C886.946594,693.602051 884.142822,692.947449 881.920105,693.068970 
	C880.427795,693.150513 878.927795,693.090088 876.941772,693.093262 
z"/>
<path fill="#5207AB" opacity="1.000000" stroke="none" 
	d="
M924.000122,646.885986 
	C917.520752,646.875488 911.530212,647.057312 905.569824,646.715332 
	C904.134705,646.632935 902.799194,644.814453 901.417847,643.794434 
	C902.722717,642.689331 904.011536,640.646118 905.334778,640.623657 
	C919.116699,640.388733 932.905701,640.388367 946.687622,640.623535 
	C948.008972,640.645996 949.295654,642.696106 950.598389,643.804932 
	C949.207214,644.821594 947.850586,646.656555 946.419006,646.717163 
	C939.123352,647.025879 931.808289,646.875671 924.000122,646.885986 
z"/>
<path fill="#5206AC" opacity="1.000000" stroke="none" 
	d="
M911.105591,637.601807 
	C908.794861,637.586853 906.854248,637.947083 905.172974,637.442505 
	C903.765137,637.020081 902.660400,635.587524 901.421509,634.602173 
	C902.700989,633.489929 903.945129,631.466187 905.265869,631.414856 
	C913.232910,631.105347 921.217407,631.243225 929.196045,631.239746 
	C934.847595,631.237305 940.499146,631.245544 946.150696,631.254395 
	C948.419495,631.257935 951.090637,631.435547 950.394775,634.460327 
	C950.093506,635.769531 947.550598,637.412231 945.993103,637.447449 
	C934.529358,637.705933 923.057434,637.596069 911.105591,637.601807 
z"/>
<path fill="#5207AB" opacity="1.000000" stroke="none" 
	d="
M944.933716,609.881348 
	C933.291748,609.877747 922.137573,609.911011 910.984070,609.839233 
	C908.795410,609.825134 905.961975,610.428101 905.969238,606.714905 
	C905.976318,603.095825 908.711243,603.496338 910.960022,603.486877 
	C923.778503,603.432617 936.597534,603.416443 949.415771,603.493591 
	C951.728333,603.507507 954.905396,602.733093 954.914368,606.691528 
	C954.923584,610.712830 951.700195,609.627380 949.414917,609.851746 
	C948.095642,609.981262 946.753540,609.879272 944.933716,609.881348 
z"/>
<path fill="#5207AB" opacity="1.000000" stroke="none" 
	d="
M922.000671,677.448608 
	C930.157715,677.457031 937.822449,677.289734 945.465759,677.620117 
	C947.000854,677.686462 948.454163,679.644470 949.945190,680.730286 
	C948.418091,681.774231 946.906738,683.696655 945.361389,683.724243 
	C932.048828,683.963135 918.730103,683.873840 905.413208,683.845825 
	C903.211487,683.841248 900.912231,683.868530 900.948425,680.608398 
	C900.985046,677.309692 903.379822,677.516357 905.520874,677.489624 
	C910.846863,677.423035 916.174133,677.455444 922.000671,677.448608 
z"/>
<path fill="#5306AD" opacity="1.000000" stroke="none" 
	d="
M904.412903,669.424194 
	C906.081848,668.795105 907.525269,668.294495 908.971069,668.287659 
	C921.967041,668.226624 934.963440,668.228882 947.959595,668.274658 
	C950.191956,668.282532 952.973511,667.736572 952.942078,671.431885 
	C952.910645,675.123291 950.072876,674.533142 947.885010,674.544250 
	C934.889160,674.610046 921.892700,674.552856 908.896606,674.591064 
	C905.582458,674.600830 903.138245,673.952454 904.412903,669.424194 
z"/>
<path fill="#5306AD" opacity="1.000000" stroke="none" 
	d="
M934.994812,600.591553 
	C925.509644,600.583191 916.523010,600.609924 907.536987,600.541382 
	C905.457214,600.525513 902.978333,600.890015 902.944397,597.507080 
	C902.911865,594.256836 905.133789,594.266602 907.371826,594.264893 
	C920.685120,594.254639 934.000183,594.158569 947.309204,594.397339 
	C948.866516,594.425171 951.406738,596.084534 951.726440,597.412415 
	C952.488464,600.578125 949.637817,600.513916 947.475037,600.549316 
	C943.482056,600.614685 939.487427,600.583191 934.994812,600.591553 
z"/>
<path fill="#5504B5" opacity="1.000000" stroke="none" 
	d="
M952.377502,655.973999 
	C938.492249,656.010925 925.041443,656.047119 911.590820,656.004150 
	C909.402405,655.997192 906.528687,656.654663 906.544861,652.967712 
	C906.560913,649.292358 909.444214,649.953552 911.624023,649.945129 
	C924.908447,649.893799 938.194031,649.870544 951.476868,650.030945 
	C952.799866,650.046936 954.107239,651.360291 955.421875,652.071533 
	C954.552002,653.363342 953.682007,654.655090 952.377502,655.973999 
z"/>
<path fill="#5603B7" opacity="1.000000" stroke="none" 
	d="
M937.968140,659.131714 
	C941.447327,659.152588 944.473694,658.899475 947.399231,659.330750 
	C948.550232,659.500305 949.475769,661.199158 950.503967,662.201599 
	C949.460510,663.184082 948.428284,665.007874 947.371948,665.021973 
	C933.106750,665.211792 918.837402,665.211609 904.572144,665.021301 
	C903.542969,665.007568 902.538391,663.153687 901.522339,662.155396 
	C902.722351,661.157166 903.903992,659.318970 905.125366,659.292114 
	C915.904541,659.055786 926.690796,659.141357 937.968140,659.131714 
z"/>
<path fill="#5504B3" opacity="1.000000" stroke="none" 
	d="
M932.999878,696.111206 
	C939.320984,696.115479 945.142334,696.092285 950.963135,696.138184 
	C953.101685,696.155029 955.929565,695.927307 955.327637,699.157898 
	C955.109192,700.330139 952.671326,701.885315 951.224854,701.908020 
	C937.756409,702.119263 924.281921,702.119751 910.813416,701.911499 
	C909.366333,701.889099 906.932373,700.348389 906.707275,699.175842 
	C906.090210,695.961182 908.884827,696.142395 911.044922,696.132751 
	C918.196472,696.100769 925.348267,696.114807 932.999878,696.111206 
z"/>
<path fill="#5603B8" opacity="1.000000" stroke="none" 
	d="
M951.375122,622.258057 
	C952.468140,623.619019 953.651917,624.956970 953.582764,626.226685 
	C953.544250,626.933594 951.424438,628.076050 950.233704,628.087341 
	C936.408752,628.218750 922.581177,628.245117 908.757874,628.048401 
	C907.502319,628.030579 906.271484,626.274902 905.029114,625.326294 
	C906.341125,624.271362 907.639771,622.319519 908.967224,622.299744 
	C922.956299,622.091492 936.949951,622.191528 951.375122,622.258057 
z"/>
<path fill="#5504B6" opacity="1.000000" stroke="none" 
	d="
M917.004333,612.908081 
	C926.651611,612.912048 935.800293,612.884399 944.948425,612.942810 
	C947.195801,612.957153 950.328125,612.575012 949.654419,616.129578 
	C949.424988,617.340149 946.699768,618.873840 945.091858,618.901062 
	C931.955078,619.124146 918.812744,619.050110 905.672485,618.999268 
	C903.616638,618.991333 901.068970,619.470215 901.016663,616.067688 
	C900.965393,612.734924 903.388794,612.984253 905.527710,612.944153 
	C909.185913,612.875610 912.846130,612.914429 917.004333,612.908081 
z"/>
<path fill="#5504B6" opacity="1.000000" stroke="none" 
	d="
M951.207458,692.861938 
	C938.810303,692.965271 926.835815,693.025574 914.861511,693.000793 
	C912.640869,692.996216 909.474304,693.445496 910.109863,689.868225 
	C910.325012,688.656738 913.039368,687.086365 914.640442,687.052856 
	C926.111633,686.812256 937.591003,686.865051 949.065613,687.004578 
	C950.492859,687.021973 951.907227,688.096924 953.327515,688.681885 
	C952.761719,690.051147 952.195984,691.420349 951.207458,692.861938 
z"/>
<path fill="#5702BC" opacity="1.000000" stroke="none" 
	d="
M536.294922,321.999146 
	C515.756958,316.641998 506.941193,302.027802 507.302643,286.398987 
	C507.691895,269.568115 516.501831,256.136475 534.165100,251.468002 
	C554.564819,246.076248 577.091858,259.143616 579.118774,282.671722 
	C580.128479,294.392181 577.014526,304.466003 568.788391,312.546478 
	C560.696411,320.495178 550.767212,324.128967 539.218201,322.050232 
	C538.410278,321.904785 537.556702,322.013336 536.294922,321.999146 
M552.583191,260.844330 
	C550.698059,258.877380 548.812866,256.910461 546.325623,254.315247 
	C544.918030,254.315247 542.319885,254.315247 539.721741,254.315247 
	C539.982483,254.684357 540.243225,255.053452 540.504028,255.422562 
	C538.693237,257.212067 537.194336,259.753296 535.016052,260.657288 
	C526.818787,264.059052 521.989136,270.755859 523.133484,278.135925 
	C524.318481,285.778656 531.213013,291.539276 539.796326,291.967865 
	C542.951050,292.125427 546.302979,291.488434 549.211670,292.374084 
	C551.347778,293.024506 553.906555,295.310120 554.424133,297.339600 
	C554.875061,299.107269 553.245972,302.124023 551.621948,303.542114 
	C548.854553,305.958649 537.740173,305.397308 534.918823,302.877441 
	C531.520691,299.842438 528.076965,300.700378 524.185608,301.505981 
	C525.024414,307.630188 528.654907,310.867798 533.692444,313.000854 
	C535.332336,313.695221 538.056274,314.435760 538.247986,315.516418 
	C539.402100,322.021881 543.802429,320.073883 547.273254,319.295807 
	C548.844971,317.094025 550.436279,314.651276 552.656372,313.739441 
	C560.778198,310.403442 565.181885,303.938599 564.059265,295.982605 
	C562.949524,288.117859 556.768005,282.936737 547.945740,282.504150 
	C544.625793,282.341370 541.137085,282.793945 538.042847,281.885132 
	C536.097534,281.313721 533.871521,278.950928 533.383484,276.990479 
	C532.954346,275.266632 534.255127,272.451202 535.700562,271.065979 
	C538.314087,268.561279 549.910767,268.627747 552.344238,271.213257 
	C555.715271,274.795013 559.399048,273.905090 563.762451,273.309937 
	C562.814209,266.755951 559.016663,263.128082 552.583191,260.844330 
z"/>
<path fill="#2E2930" opacity="1.000000" stroke="none" 
	d="
M552.956116,260.951416 
	C559.016663,263.128082 562.814209,266.755951 563.762451,273.309937 
	C559.399048,273.905090 555.715271,274.795013 552.344238,271.213257 
	C549.910767,268.627747 538.314087,268.561279 535.700562,271.065979 
	C534.255127,272.451202 532.954346,275.266632 533.383484,276.990479 
	C533.871521,278.950928 536.097534,281.313721 538.042847,281.885132 
	C541.137085,282.793945 544.625793,282.341370 547.945740,282.504150 
	C556.768005,282.936737 562.949524,288.117859 564.059265,295.982605 
	C565.181885,303.938599 560.778198,310.403442 552.656372,313.739441 
	C550.436279,314.651276 548.844971,317.094025 547.273254,319.295807 
	C543.802429,320.073883 539.402100,322.021881 538.247986,315.516418 
	C538.056274,314.435760 535.332336,313.695221 533.692444,313.000854 
	C528.654907,310.867798 525.024414,307.630188 524.185608,301.505981 
	C528.076965,300.700378 531.520691,299.842438 534.918823,302.877441 
	C537.740173,305.397308 548.854553,305.958649 551.621948,303.542114 
	C553.245972,302.124023 554.875061,299.107269 554.424133,297.339600 
	C553.906555,295.310120 551.347778,293.024506 549.211670,292.374084 
	C546.302979,291.488434 542.951050,292.125427 539.796326,291.967865 
	C531.213013,291.539276 524.318481,285.778656 523.133484,278.135925 
	C521.989136,270.755859 526.818787,264.059052 535.016052,260.657288 
	C537.194336,259.753296 538.693237,257.212067 540.504028,255.422562 
	C540.243225,255.053452 539.982483,254.684357 539.721741,254.315247 
	C542.319885,254.315247 544.918030,254.315247 546.325623,254.315247 
	C548.812866,256.910461 550.698059,258.877380 552.956116,260.951416 
z"/>
</svg>